<svg width="32" height="32" viewBox="0 0 32 32" fill="none" xmlns="http://www.w3.org/2000/svg">
<path d="M27 11.9999C27.0011 10.1462 26.5337 8.32223 25.6412 6.69747C24.7487 5.07271 23.4601 3.69985 21.895 2.7064C20.33 1.71295 18.5392 1.13115 16.6891 1.01502C14.839 0.898887 12.9896 1.2522 11.3125 2.04214C9.63553 2.83209 8.18535 4.03303 7.0967 5.53344C6.00805 7.03385 5.31624 8.78505 5.08553 10.6244C4.85482 12.4637 5.09268 14.3315 5.77704 16.0543C6.4614 17.7771 7.57004 19.299 9 20.4787V29.9999C8.99988 30.1705 9.04338 30.3382 9.12636 30.4872C9.20934 30.6362 9.32905 30.7615 9.4741 30.8512C9.61916 30.9409 9.78474 30.992 9.95511 30.9996C10.1255 31.0073 10.295 30.9713 10.4475 30.8949L16 28.1249L21.5538 30.9012C21.693 30.9678 21.8457 31.0016 22 30.9999C22.2652 30.9999 22.5196 30.8946 22.7071 30.707C22.8946 30.5195 23 30.2652 23 29.9999V20.4787C24.2512 19.4482 25.2587 18.1536 25.9503 16.6876C26.6419 15.2217 27.0003 13.6208 27 11.9999ZM7 11.9999C7 10.2199 7.52784 8.47985 8.51678 6.99981C9.50571 5.51977 10.9113 4.36621 12.5559 3.68502C14.2004 3.00384 16.01 2.82561 17.7558 3.17287C19.5016 3.52014 21.1053 4.37731 22.364 5.63598C23.6226 6.89465 24.4798 8.4983 24.8271 10.2441C25.1743 11.99 24.9961 13.7996 24.3149 15.4441C23.6337 17.0886 22.4802 18.4942 21.0001 19.4832C19.5201 20.4721 17.78 20.9999 16 20.9999C13.6139 20.9973 11.3262 20.0482 9.63896 18.361C7.95171 16.6737 7.00265 14.3861 7 11.9999ZM21 28.3824L16.4463 26.1062C16.3073 26.0367 16.1541 26.0005 15.9988 26.0005C15.8434 26.0005 15.6902 26.0367 15.5513 26.1062L11 28.3824V21.7962C12.548 22.5874 14.2616 22.9999 16 22.9999C17.7384 22.9999 19.452 22.5874 21 21.7962V28.3824ZM16 18.9999C17.3845 18.9999 18.7379 18.5894 19.889 17.8202C21.0401 17.0511 21.9373 15.9578 22.4672 14.6787C22.997 13.3996 23.1356 11.9922 22.8655 10.6343C22.5954 9.27644 21.9287 8.02916 20.9497 7.05019C19.9708 6.07123 18.7235 5.40454 17.3656 5.13444C16.0078 4.86435 14.6003 5.00297 13.3212 5.53278C12.0421 6.0626 10.9489 6.95981 10.1797 8.11095C9.41054 9.26209 9 10.6155 9 11.9999C9.00199 13.8558 9.74012 15.6352 11.0524 16.9475C12.3648 18.2598 14.1441 18.998 16 18.9999ZM16 6.99994C16.9889 6.99994 17.9556 7.29319 18.7779 7.84259C19.6001 8.392 20.241 9.17289 20.6194 10.0865C20.9978 11.0002 21.0969 12.0055 20.9039 12.9754C20.711 13.9453 20.2348 14.8362 19.5355 15.5355C18.8363 16.2347 17.9454 16.7109 16.9755 16.9039C16.0055 17.0968 15.0002 16.9978 14.0866 16.6193C13.173 16.2409 12.3921 15.6 11.8427 14.7778C11.2932 13.9555 11 12.9888 11 11.9999C11 10.6739 11.5268 9.40209 12.4645 8.46441C13.4022 7.52672 14.6739 6.99994 16 6.99994Z" fill="black"/>
</svg>
